<svg width="256" height="39" viewBox="0 0 256 39" fill="none" xmlns="http://www.w3.org/2000/svg">
<rect width="256" height="39" rx="19.5" fill="url(#paint0_linear_27_316)"/>
<path d="M51.9902 14.1L46.8392 26H44.1192L38.9852 14.1H41.9602L45.5812 22.6L49.2532 14.1H51.9902ZM61.0751 21.461C61.0751 21.495 61.0581 21.733 61.0241 22.175H54.1051C54.2298 22.7417 54.5244 23.1893 54.9891 23.518C55.4538 23.8467 56.0318 24.011 56.7231 24.011C57.1991 24.011 57.6184 23.943 57.9811 23.807C58.3551 23.6597 58.7008 23.433 59.0181 23.127L60.4291 24.657C59.5678 25.643 58.3098 26.136 56.6551 26.136C55.6238 26.136 54.7114 25.9377 53.9181 25.541C53.1248 25.133 52.5128 24.572 52.0821 23.858C51.6514 23.144 51.4361 22.3337 51.4361 21.427C51.4361 20.5317 51.6458 19.727 52.0651 19.013C52.4958 18.2877 53.0794 17.7267 53.8161 17.33C54.5641 16.922 55.3971 16.718 56.3151 16.718C57.2104 16.718 58.0208 16.9107 58.7461 17.296C59.4714 17.6813 60.0381 18.2367 60.4461 18.962C60.8654 19.676 61.0751 20.509 61.0751 21.461ZM56.3321 18.724C55.7314 18.724 55.2271 18.894 54.8191 19.234C54.4111 19.574 54.1618 20.0387 54.0711 20.628H58.5761C58.4854 20.05 58.2361 19.591 57.8281 19.251C57.4201 18.8997 56.9214 18.724 56.3321 18.724ZM65.3737 18.061C65.691 17.619 66.116 17.2847 66.6487 17.058C67.1927 16.8313 67.816 16.718 68.5187 16.718V19.166C68.224 19.1433 68.0257 19.132 67.9237 19.132C67.1644 19.132 66.5694 19.3473 66.1387 19.778C65.708 20.1973 65.4927 20.832 65.4927 21.682V26H62.8407V16.854H65.3737V18.061ZM70.0956 16.854H72.7476V26H70.0956V16.854ZM71.4216 15.579C70.9342 15.579 70.5376 15.4373 70.2316 15.154C69.9256 14.8707 69.7726 14.5193 69.7726 14.1C69.7726 13.6807 69.9256 13.3293 70.2316 13.046C70.5376 12.7627 70.9342 12.621 71.4216 12.621C71.9089 12.621 72.3056 12.757 72.6116 13.029C72.9176 13.301 73.0706 13.641 73.0706 14.049C73.0706 14.491 72.9176 14.8593 72.6116 15.154C72.3056 15.4373 71.9089 15.579 71.4216 15.579ZM78.1159 17.058H80.4619V19.098H78.1839V26H75.5319V19.098H74.1209V17.058H75.5319V16.65C75.5319 15.6073 75.8379 14.78 76.4499 14.168C77.0732 13.556 77.9459 13.25 79.0679 13.25C79.4645 13.25 79.8385 13.2953 80.1899 13.386C80.5525 13.4653 80.8529 13.5843 81.0909 13.743L80.3939 15.664C80.0879 15.4487 79.7309 15.341 79.3229 15.341C78.5182 15.341 78.1159 15.783 78.1159 16.667V17.058ZM91.0271 16.854L86.8961 26.561C86.4768 27.615 85.9554 28.3573 85.3321 28.788C84.7201 29.2187 83.9778 29.434 83.1051 29.434C82.6291 29.434 82.1588 29.3603 81.6941 29.213C81.2294 29.0657 80.8498 28.8617 80.5551 28.601L81.5241 26.714C81.7281 26.8953 81.9604 27.037 82.2211 27.139C82.4931 27.241 82.7594 27.292 83.0201 27.292C83.3828 27.292 83.6774 27.2013 83.9041 27.02C84.1308 26.85 84.3348 26.561 84.5161 26.153L84.5501 26.068L80.5891 16.854H83.3261L85.8931 23.059L88.4771 16.854H91.0271ZM102.823 21.784V26H100.069V21.75L95.4617 14.1H98.3857L101.565 19.387L104.744 14.1H107.447L102.823 21.784ZM111.751 26.136C110.788 26.136 109.921 25.9377 109.15 25.541C108.391 25.133 107.796 24.572 107.365 23.858C106.935 23.144 106.719 22.3337 106.719 21.427C106.719 20.5203 106.935 19.71 107.365 18.996C107.796 18.282 108.391 17.7267 109.15 17.33C109.921 16.922 110.788 16.718 111.751 16.718C112.715 16.718 113.576 16.922 114.335 17.33C115.095 17.7267 115.69 18.282 116.12 18.996C116.551 19.71 116.766 20.5203 116.766 21.427C116.766 22.3337 116.551 23.144 116.12 23.858C115.69 24.572 115.095 25.133 114.335 25.541C113.576 25.9377 112.715 26.136 111.751 26.136ZM111.751 23.96C112.431 23.96 112.987 23.7333 113.417 23.28C113.859 22.8153 114.08 22.1977 114.08 21.427C114.08 20.6563 113.859 20.0443 113.417 19.591C112.987 19.1263 112.431 18.894 111.751 18.894C111.071 18.894 110.51 19.1263 110.068 19.591C109.626 20.0443 109.405 20.6563 109.405 21.427C109.405 22.1977 109.626 22.8153 110.068 23.28C110.51 23.7333 111.071 23.96 111.751 23.96ZM127.753 16.854V26H125.237V24.912C124.886 25.3087 124.466 25.6147 123.979 25.83C123.492 26.034 122.965 26.136 122.398 26.136C121.197 26.136 120.245 25.7903 119.542 25.099C118.839 24.4077 118.488 23.382 118.488 22.022V16.854H121.14V21.631C121.14 23.1043 121.758 23.841 122.993 23.841C123.628 23.841 124.138 23.637 124.523 23.229C124.908 22.8097 125.101 22.192 125.101 21.376V16.854H127.753ZM132.743 18.061C133.06 17.619 133.485 17.2847 134.018 17.058C134.562 16.8313 135.185 16.718 135.888 16.718V19.166C135.593 19.1433 135.395 19.132 135.293 19.132C134.534 19.132 133.939 19.3473 133.508 19.778C133.077 20.1973 132.862 20.832 132.862 21.682V26H130.21V16.854H132.743V18.061ZM150.37 23.45H144.845L143.791 26H140.969L146.273 14.1H148.993L154.314 26H151.424L150.37 23.45ZM149.503 21.359L147.616 16.803L145.729 21.359H149.503ZM159.698 26.136C158.724 26.136 157.845 25.9377 157.063 25.541C156.293 25.133 155.686 24.572 155.244 23.858C154.814 23.144 154.598 22.3337 154.598 21.427C154.598 20.5203 154.814 19.71 155.244 18.996C155.686 18.282 156.293 17.7267 157.063 17.33C157.845 16.922 158.724 16.718 159.698 16.718C160.662 16.718 161.5 16.922 162.214 17.33C162.94 17.7267 163.467 18.299 163.795 19.047L161.738 20.152C161.262 19.3133 160.577 18.894 159.681 18.894C158.99 18.894 158.418 19.1207 157.964 19.574C157.511 20.0273 157.284 20.645 157.284 21.427C157.284 22.209 157.511 22.8267 157.964 23.28C158.418 23.7333 158.99 23.96 159.681 23.96C160.588 23.96 161.274 23.5407 161.738 22.702L163.795 23.824C163.467 24.5493 162.94 25.116 162.214 25.524C161.5 25.932 160.662 26.136 159.698 26.136ZM169.626 26.136C168.651 26.136 167.773 25.9377 166.991 25.541C166.22 25.133 165.614 24.572 165.172 23.858C164.741 23.144 164.526 22.3337 164.526 21.427C164.526 20.5203 164.741 19.71 165.172 18.996C165.614 18.282 166.22 17.7267 166.991 17.33C167.773 16.922 168.651 16.718 169.626 16.718C170.589 16.718 171.428 16.922 172.142 17.33C172.867 17.7267 173.394 18.299 173.723 19.047L171.666 20.152C171.19 19.3133 170.504 18.894 169.609 18.894C168.918 18.894 168.345 19.1207 167.892 19.574C167.439 20.0273 167.212 20.645 167.212 21.427C167.212 22.209 167.439 22.8267 167.892 23.28C168.345 23.7333 168.918 23.96 169.609 23.96C170.516 23.96 171.201 23.5407 171.666 22.702L173.723 23.824C173.394 24.5493 172.867 25.116 172.142 25.524C171.428 25.932 170.589 26.136 169.626 26.136ZM179.486 26.136C178.522 26.136 177.655 25.9377 176.885 25.541C176.125 25.133 175.53 24.572 175.1 23.858C174.669 23.144 174.454 22.3337 174.454 21.427C174.454 20.5203 174.669 19.71 175.1 18.996C175.53 18.282 176.125 17.7267 176.885 17.33C177.655 16.922 178.522 16.718 179.486 16.718C180.449 16.718 181.31 16.922 182.07 17.33C182.829 17.7267 183.424 18.282 183.855 18.996C184.285 19.71 184.501 20.5203 184.501 21.427C184.501 22.3337 184.285 23.144 183.855 23.858C183.424 24.572 182.829 25.133 182.07 25.541C181.31 25.9377 180.449 26.136 179.486 26.136ZM179.486 23.96C180.166 23.96 180.721 23.7333 181.152 23.28C181.594 22.8153 181.815 22.1977 181.815 21.427C181.815 20.6563 181.594 20.0443 181.152 19.591C180.721 19.1263 180.166 18.894 179.486 18.894C178.806 18.894 178.245 19.1263 177.803 19.591C177.361 20.0443 177.14 20.6563 177.14 21.427C177.14 22.1977 177.361 22.8153 177.803 23.28C178.245 23.7333 178.806 23.96 179.486 23.96ZM195.487 16.854V26H192.971V24.912C192.62 25.3087 192.201 25.6147 191.713 25.83C191.226 26.034 190.699 26.136 190.132 26.136C188.931 26.136 187.979 25.7903 187.276 25.099C186.574 24.4077 186.222 23.382 186.222 22.022V16.854H188.874V21.631C188.874 23.1043 189.492 23.841 190.727 23.841C191.362 23.841 191.872 23.637 192.257 23.229C192.643 22.8097 192.835 22.192 192.835 21.376V16.854H195.487ZM203.503 16.718C204.637 16.718 205.549 17.058 206.24 17.738C206.943 18.418 207.294 19.4267 207.294 20.764V26H204.642V21.172C204.642 20.4467 204.484 19.9083 204.166 19.557C203.849 19.1943 203.39 19.013 202.789 19.013C202.121 19.013 201.588 19.2227 201.191 19.642C200.795 20.05 200.596 20.662 200.596 21.478V26H197.944V16.854H200.477V17.925C200.829 17.5397 201.265 17.245 201.786 17.041C202.308 16.8257 202.88 16.718 203.503 16.718ZM215.597 25.558C215.336 25.7507 215.013 25.898 214.628 26C214.254 26.0907 213.857 26.136 213.438 26.136C212.35 26.136 211.506 25.8583 210.905 25.303C210.316 24.7477 210.021 23.9317 210.021 22.855V19.098H208.61V17.058H210.021V14.831H212.673V17.058H214.951V19.098H212.673V22.821C212.673 23.2063 212.769 23.5067 212.962 23.722C213.166 23.926 213.449 24.028 213.812 24.028C214.231 24.028 214.588 23.9147 214.883 23.688L215.597 25.558Z" fill="#686868"/>
<defs>
<linearGradient id="paint0_linear_27_316" x1="128" y1="-3.43352e-06" x2="176.554" y2="118.002" gradientUnits="userSpaceOnUse">
<stop stop-color="#45FA8D"/>
<stop offset="1" stop-color="#D8FA05" stop-opacity="0.28"/>
</linearGradient>
</defs>
</svg>
